<svg width="240" height="83" viewBox="0 0 240 83" fill="none" xmlns="http://www.w3.org/2000/svg">
<path d="M23.8166 82.0171C10.6842 82.0171 0 71.3329 0 58.2005V48.184H13.2674V58.2005C13.2674 64.0177 17.9999 68.7497 23.8166 68.7497C29.6333 68.7497 34.3658 64.0177 34.3658 58.2005V48.184H47.6332V58.2005C47.6332 71.3329 36.949 82.0171 23.8166 82.0171Z" fill="#00FF8C"/>
<path d="M94.7344 28.0639V13.8182H99.0825V27.8869C99.0825 32.4826 101.451 34.9568 105.339 34.9568C109.192 34.9568 111.561 32.6239 111.561 28.0639V13.8182H115.908V27.8521C115.908 35.2397 111.737 38.9514 105.268 38.9514C98.8349 38.9514 94.7344 35.2397 94.7344 28.0639Z" fill="black"/>
<path d="M120.309 19.9513H124.586V22.85C125.788 21.0824 127.52 19.5624 130.418 19.5624C134.625 19.5624 137.064 22.3906 137.064 26.7383V38.6157H132.787V28.0107C132.787 25.1124 131.337 23.4507 128.792 23.4507C126.318 23.4507 124.586 25.183 124.586 28.0817V38.6157H120.309V19.9513Z" fill="black"/>
<path d="M142.472 19.951H146.75V38.6155H142.472V19.951ZM142.296 13.0228H146.891V17.088H142.296V13.0228Z" fill="black"/>
<path d="M153.22 33.4545V23.6276H150.852V19.9512H153.22V14.8254H157.497V19.9512H162.516V23.6276H157.497V32.7828C157.497 34.4445 158.345 35.1158 159.795 35.1158C160.749 35.1158 161.597 34.9039 162.446 34.4798V37.9792C161.385 38.5799 160.184 38.9338 158.593 38.9338C155.447 38.9338 153.22 37.5551 153.22 33.4545Z" fill="black"/>
<path d="M178.389 27.9753C178.106 25.2182 176.48 23.0618 173.652 23.0618C171.037 23.0618 169.198 25.0765 168.809 27.9753H178.389ZM164.567 29.354V29.2834C164.567 23.9453 168.35 19.5623 173.687 19.5623C179.626 19.5623 182.631 24.2282 182.631 29.6012C182.631 29.99 182.595 30.3788 182.56 30.8034H168.845C169.304 33.8434 171.461 35.5399 174.218 35.5399C176.303 35.5399 177.788 34.7622 179.273 33.3129L181.782 35.5399C180.015 37.661 177.576 39.0393 174.147 39.0393C168.739 39.0393 164.567 35.1158 164.567 29.354Z" fill="black"/>
<path d="M200.375 29.3184V29.2478C200.375 25.642 197.83 23.2738 194.967 23.2738C192.033 23.2738 189.594 25.5361 189.594 29.2478V29.3184C189.594 32.9242 192.068 35.2924 194.967 35.2924C197.83 35.2924 200.375 32.8889 200.375 29.3184ZM185.281 29.3184V29.2478C185.281 23.0615 189.488 19.5621 193.942 19.5621C197.017 19.5621 198.961 21.1173 200.305 22.8496V12.8104H204.582V38.6153H200.305V35.5043C198.926 37.4489 196.982 39.0042 193.942 39.0042C189.558 39.0042 185.281 35.5043 185.281 29.3184Z" fill="black"/>
<path d="M104.156 56.6567C107.443 56.6567 109.493 54.8185 109.493 52.2379V52.1673C109.493 49.2686 107.408 47.7486 104.156 47.7486H99.1011V56.6567H104.156ZM94.7529 43.7893H104.509C110.271 43.7893 113.912 47.0769 113.912 52.061V52.132C113.912 57.6815 109.458 60.5802 104.015 60.5802H99.1011V68.5337H94.7529V43.7893Z" fill="black"/>
<path d="M128.335 60.7169C127.24 60.2928 125.72 59.9746 124.058 59.9746C121.371 59.9746 119.781 61.0704 119.781 62.8733V62.9439C119.781 64.7115 121.371 65.7015 123.386 65.7015C126.214 65.7015 128.335 64.1104 128.335 61.7775V60.7169ZM128.229 68.5291V66.2315C126.957 67.7515 125.013 68.918 122.184 68.918C118.65 68.918 115.539 66.9032 115.539 63.1562V63.0856C115.539 58.9493 118.756 56.9703 123.104 56.9703C125.366 56.9703 126.815 57.2881 128.265 57.7475V57.394C128.265 54.8139 126.638 53.3999 123.669 53.3999C121.584 53.3999 120.028 53.8593 118.331 54.5663L117.165 51.1375C119.215 50.2182 121.23 49.5818 124.27 49.5818C129.785 49.5818 132.471 52.4805 132.471 57.4646V68.5291H128.229Z" fill="black"/>
<path d="M135.544 73.1601L136.994 69.9789C137.771 70.403 138.62 70.6859 139.504 70.6859C140.705 70.6859 141.448 70.1554 142.155 68.5295L134.378 49.8655H138.938L144.24 63.7219L149.083 49.8655H153.537L146.114 69.06C144.629 72.8772 142.968 74.2913 139.963 74.2913C138.16 74.2913 136.853 73.8671 135.544 73.1601Z" fill="black"/>
<path d="M156.506 49.865H160.783V52.6927C161.985 51.0315 163.611 49.4762 166.475 49.4762C169.161 49.4762 171.034 50.7839 172.024 52.7638C173.544 50.7839 175.524 49.4762 178.352 49.4762C182.417 49.4762 184.891 52.0568 184.891 56.6167V68.5291H180.614V57.9244C180.614 54.9551 179.236 53.3645 176.832 53.3645C174.499 53.3645 172.837 54.9904 172.837 57.995V68.5291H168.56V57.8891C168.56 54.9904 167.146 53.3645 164.778 53.3645C162.409 53.3645 160.783 55.1321 160.783 58.0304V68.5291H156.506V49.865Z" fill="black"/>
<path d="M201.471 57.8898C201.188 55.1327 199.562 52.9763 196.734 52.9763C194.119 52.9763 192.28 54.9911 191.891 57.8898H201.471ZM187.649 59.2681V59.1979C187.649 53.8599 191.432 49.4769 196.769 49.4769C202.709 49.4769 205.713 54.1428 205.713 59.5157C205.713 59.9045 205.677 60.2934 205.642 60.7175H191.927C192.386 63.7579 194.543 65.4544 197.3 65.4544C199.385 65.4544 200.87 64.6768 202.355 63.2274L204.864 65.4544C203.097 67.5755 200.658 68.9539 197.229 68.9539C191.821 68.9539 187.649 65.0303 187.649 59.2681Z" fill="black"/>
<path d="M208.611 49.8653H212.889V52.764C214.091 50.996 215.822 49.4765 218.721 49.4765C222.928 49.4765 225.367 52.3042 225.367 56.6523V68.5293H221.089V57.9247C221.089 55.0264 219.64 53.3647 217.095 53.3647C214.621 53.3647 212.889 55.097 212.889 57.9953V68.5293H208.611V49.8653Z" fill="black"/>
<path d="M230.703 63.3689V53.5419H228.335V49.8655H230.703V44.7397H234.98V49.8655H240V53.5419H234.98V62.6971C234.98 64.3588 235.829 65.0305 237.278 65.0305C238.233 65.0305 239.081 64.8182 239.93 64.3941V67.8935C238.869 68.4946 237.667 68.8481 236.077 68.8481C232.93 68.8481 230.703 67.4694 230.703 63.3689Z" fill="black"/>
<path d="M57.6503 48.1838H47.6338V34.9164H57.6503C63.467 34.9164 68.1995 30.1844 68.1995 24.3672C68.1995 18.5505 63.467 13.818 57.6503 13.818H47.6338V0.550644H57.6503C70.7827 0.550644 81.4668 11.2348 81.4668 24.3672C81.4668 37.4997 70.7827 48.1838 57.6503 48.1838Z" fill="black"/>
</svg>
