<svg width="301" height="186" viewBox="0 0 301 186" fill="none" xmlns="http://www.w3.org/2000/svg">
<path d="M192.95 83.4425C188.272 79.2164 182.625 77.1509 176.096 77.1509C169.657 77.1509 164.01 79.2198 159.329 83.4425C154.651 87.5775 152.273 93.3325 152.273 100.705C152.273 108.077 154.651 113.829 159.329 118.055C164.006 122.19 169.657 124.259 176.096 124.259C182.625 124.259 188.272 122.19 192.95 118.055C197.718 113.829 200.095 108.077 200.095 100.705C200.095 93.3325 197.714 87.5775 192.95 83.4425ZM167.276 110.143C164.809 107.717 163.567 104.568 163.567 100.705C163.567 96.8388 164.799 93.6927 167.276 91.3552C169.743 88.9295 172.66 87.7607 176.093 87.7607C179.529 87.7607 182.532 88.9295 185.002 91.3552C187.556 93.6927 188.798 96.8388 188.798 100.705C188.798 104.571 187.566 107.717 185.002 110.143C182.535 112.48 179.532 113.649 176.093 113.649C172.66 113.649 169.75 112.48 167.276 110.143Z" fill="#21262E"/>
<path d="M216.78 122.998V61.3086H205.663V122.998H216.78Z" fill="#21262E"/>
<path d="M252.664 78.4082V103.023C252.664 108.954 249.517 112.885 243.527 112.885C237.438 112.885 234.375 108.957 234.375 103.023V78.4082H223.238V104.911C223.238 115.178 229.59 124.256 243.527 124.256H243.614C257.465 124.256 263.808 114.978 263.808 104.911V78.4082H252.664Z" fill="#21262E"/>
<path d="M140.442 78.4082L129.325 108.614L118.208 78.4082H106.385L124.124 122.999H134.539L152.275 78.4082H140.442Z" fill="#21262E"/>
<path d="M106.438 99.4443C106.438 92.9723 104.41 87.6691 100.438 83.4425C96.4663 79.2164 91.3554 77.1509 85.0889 77.1509C78.6499 77.1509 73.176 79.3996 68.6745 83.8027C64.2595 88.2091 62.0586 93.7809 62.0586 100.705C62.0586 107.629 64.2629 113.292 68.588 117.695C73.003 122.101 78.2971 124.259 84.5597 124.259C94.1823 124.259 100.974 119.944 105.113 111.223L96.8225 106.368C94.0924 111.852 90.1167 114.549 84.7361 114.549C78.1207 114.549 73.4423 110.235 72.7367 103.402H106.435V99.4443H106.438ZM84.7293 85.78C90.9924 85.78 95.1445 89.3744 96.1994 95.1295H72.7299C74.4113 89.8262 78.993 85.78 84.7293 85.78Z" fill="#21262E"/>
<path d="M62.0597 122.998L47.1435 96.3897C56.5795 92.8835 61.2574 86.7717 61.2574 77.8706C61.2676 66.9922 52.7904 60.0684 39.2929 60.0684H12.9163V122.998H24.5628V97.4669H34.4483L48.7385 122.998H62.0597ZM39.2929 70.495C46.1745 70.495 49.6176 73.2809 49.6176 78.764C49.6176 84.2475 46.1717 87.0334 39.2929 87.0334H24.5628V70.495H39.2929Z" fill="#21262E"/>
<path d="M282.656 124.255C275.501 124.255 269.698 118.34 269.698 111.039V66.3599H280.814V78.4238H290.347V87.5934H280.814V110.312C280.814 112.453 282.516 114.185 284.62 114.185H290.347V124.255H282.656Z" fill="#21262E"/>
</svg>
