<svg width="256" height="139" viewBox="0 0 256 139" fill="none" xmlns="http://www.w3.org/2000/svg">
<path d="M3.07066 131.38V109.873H11.136C12.7883 109.873 14.1745 110.181 15.2947 110.797C16.4219 111.413 17.2725 112.26 17.8466 113.338C18.4277 114.41 18.7183 115.628 18.7183 116.993C18.7183 118.372 18.4277 119.597 17.8466 120.669C17.2655 121.74 16.4079 122.583 15.2737 123.2C14.1395 123.809 12.7428 124.113 11.0835 124.113H5.73811V120.91H10.5584C11.5246 120.91 12.3157 120.742 12.9318 120.406C13.5479 120.07 14.003 119.608 14.297 119.02C14.5981 118.432 14.7486 117.756 14.7486 116.993C14.7486 116.23 14.5981 115.558 14.297 114.977C14.003 114.396 13.5444 113.944 12.9213 113.622C12.3052 113.293 11.5106 113.128 10.5374 113.128H6.96681V131.38H3.07066ZM25.9917 131.706C24.9695 131.706 24.0488 131.524 23.2297 131.16C22.4176 130.789 21.7735 130.243 21.2974 129.522C20.8283 128.8 20.5938 127.911 20.5938 126.854C20.5938 125.944 20.7618 125.191 21.0979 124.596C21.4339 124.001 21.8925 123.525 22.4736 123.168C23.0547 122.811 23.7093 122.541 24.4374 122.359C25.1725 122.17 25.9322 122.034 26.7163 121.95C27.6614 121.852 28.4281 121.764 29.0162 121.687C29.6043 121.603 30.0313 121.477 30.2974 121.309C30.5704 121.134 30.7069 120.865 30.7069 120.501V120.438C30.7069 119.646 30.4724 119.034 30.0033 118.6C29.5343 118.166 28.8586 117.949 27.9765 117.949C27.0453 117.949 26.3067 118.152 25.7606 118.558C25.2215 118.964 24.8575 119.443 24.6684 119.996L21.1189 119.492C21.3989 118.512 21.861 117.693 22.5051 117.035C23.1492 116.37 23.9368 115.873 24.868 115.544C25.7991 115.208 26.8283 115.04 27.9555 115.04C28.7326 115.04 29.5063 115.131 30.2764 115.313C31.0465 115.495 31.7501 115.796 32.3872 116.216C33.0243 116.629 33.5354 117.193 33.9205 117.907C34.3125 118.621 34.5086 119.513 34.5086 120.585V131.38H30.854V129.165H30.728C30.4969 129.613 30.1714 130.033 29.7513 130.425C29.3382 130.81 28.8166 131.121 28.1865 131.359C27.5634 131.59 26.8318 131.706 25.9917 131.706ZM26.9788 128.912C27.742 128.912 28.4036 128.762 28.9637 128.461C29.5238 128.153 29.9543 127.747 30.2554 127.243C30.5634 126.739 30.7175 126.189 30.7175 125.594V123.693C30.5984 123.791 30.3954 123.882 30.1083 123.966C29.8283 124.05 29.5133 124.124 29.1632 124.187C28.8131 124.25 28.4666 124.306 28.1235 124.355C27.7805 124.404 27.4829 124.446 27.2309 124.481C26.6638 124.558 26.1562 124.684 25.7081 124.859C25.26 125.034 24.9065 125.279 24.6474 125.594C24.3884 125.902 24.2589 126.301 24.2589 126.791C24.2589 127.491 24.5144 128.02 25.0255 128.377C25.5366 128.734 26.1877 128.912 26.9788 128.912ZM39.8208 137.429C39.3027 137.429 38.8231 137.387 38.382 137.303C37.948 137.226 37.6014 137.135 37.3424 137.03L38.2245 134.069C38.7776 134.23 39.2712 134.307 39.7053 134.3C40.1393 134.293 40.5209 134.156 40.85 133.89C41.186 133.631 41.4696 133.197 41.7006 132.588L42.0261 131.716L36.1767 115.25H40.2093L43.927 127.432H44.095L47.8231 115.25H51.8663L45.4077 133.334C45.1067 134.188 44.7076 134.919 44.2105 135.529C43.7134 136.145 43.1043 136.614 42.3832 136.936C41.6691 137.265 40.8149 137.429 39.8208 137.429ZM54.2012 131.38V115.25H57.8348V117.991H58.0239C58.3599 117.066 58.9165 116.345 59.6937 115.827C60.4708 115.302 61.3984 115.04 62.4766 115.04C63.5688 115.04 64.4895 115.306 65.2386 115.838C65.9947 116.363 66.5268 117.08 66.8348 117.991H67.0029C67.3599 117.094 67.962 116.38 68.8092 115.848C69.6633 115.309 70.675 115.04 71.8442 115.04C73.3284 115.04 74.5396 115.509 75.4778 116.447C76.4159 117.385 76.885 118.754 76.885 120.553V131.38H73.0729V121.141C73.0729 120.14 72.8068 119.408 72.2747 118.946C71.7427 118.477 71.0915 118.243 70.3214 118.243C69.4043 118.243 68.6866 118.53 68.1686 119.104C67.6575 119.671 67.4019 120.41 67.4019 121.32V131.38H63.6738V120.984C63.6738 120.151 63.4218 119.485 62.9177 118.988C62.4206 118.491 61.7695 118.243 60.9644 118.243C60.4183 118.243 59.9212 118.383 59.4731 118.663C59.025 118.936 58.668 119.324 58.4019 119.828C58.1359 120.326 58.0029 120.907 58.0029 121.572V131.38H54.2012ZM87.5872 131.695C85.97 131.695 84.5732 131.359 83.397 130.687C82.2278 130.008 81.3282 129.049 80.6981 127.81C80.068 126.564 79.7529 125.097 79.7529 123.41C79.7529 121.75 80.068 120.294 80.6981 119.041C81.3352 117.781 82.2243 116.8 83.3655 116.1C84.5067 115.393 85.8474 115.04 87.3877 115.04C88.3819 115.04 89.32 115.201 90.2022 115.523C91.0913 115.838 91.8754 116.328 92.5546 116.993C93.2407 117.658 93.7798 118.505 94.1718 119.534C94.5639 120.557 94.7599 121.775 94.7599 123.189V124.355H81.5382V121.792H91.1158C91.1088 121.064 90.9513 120.417 90.6432 119.849C90.3352 119.275 89.9046 118.824 89.3515 118.495C88.8054 118.166 88.1683 118.001 87.4402 118.001C86.6631 118.001 85.9805 118.19 85.3924 118.568C84.8043 118.939 84.3457 119.429 84.0166 120.038C83.6946 120.641 83.5301 121.302 83.5231 122.023V124.26C83.5231 125.198 83.6946 126.003 84.0376 126.676C84.3807 127.341 84.8603 127.852 85.4764 128.209C86.0925 128.559 86.8136 128.734 87.6397 128.734C88.1928 128.734 88.6934 128.657 89.1415 128.503C89.5896 128.342 89.9781 128.107 90.3072 127.799C90.6362 127.491 90.8848 127.11 91.0528 126.655L94.6024 127.054C94.3784 127.992 93.9513 128.811 93.3212 129.511C92.6981 130.204 91.8999 130.743 90.9268 131.128C89.9536 131.506 88.8404 131.695 87.5872 131.695ZM101.482 121.929V131.38H97.6804V115.25H101.314V117.991H101.503C101.874 117.087 102.466 116.37 103.278 115.838C104.097 115.306 105.109 115.04 106.313 115.04C107.426 115.04 108.396 115.278 109.222 115.754C110.055 116.23 110.699 116.919 111.154 117.823C111.616 118.726 111.844 119.821 111.837 121.11V131.38H108.035V121.698C108.035 120.62 107.755 119.776 107.195 119.167C106.642 118.558 105.875 118.253 104.895 118.253C104.23 118.253 103.638 118.4 103.12 118.694C102.609 118.981 102.207 119.398 101.913 119.944C101.626 120.49 101.482 121.152 101.482 121.929ZM123.46 115.25V118.19H114.187V115.25H123.46ZM116.477 111.385H120.278V126.529C120.278 127.04 120.355 127.432 120.509 127.705C120.67 127.971 120.881 128.153 121.14 128.251C121.399 128.349 121.686 128.398 122.001 128.398C122.239 128.398 122.456 128.38 122.652 128.345C122.855 128.31 123.009 128.279 123.114 128.251L123.755 131.223C123.551 131.293 123.261 131.37 122.883 131.454C122.512 131.538 122.057 131.587 121.518 131.601C120.565 131.629 119.708 131.485 118.945 131.17C118.182 130.848 117.576 130.351 117.128 129.679C116.687 129.007 116.47 128.167 116.477 127.159V111.385ZM147.96 116.741C147.785 116.174 147.544 115.666 147.236 115.218C146.935 114.763 146.571 114.375 146.143 114.052C145.723 113.73 145.24 113.489 144.694 113.328C144.148 113.16 143.553 113.076 142.909 113.076C141.754 113.076 140.725 113.366 139.821 113.947C138.918 114.529 138.208 115.383 137.69 116.51C137.178 117.63 136.923 118.995 136.923 120.606C136.923 122.23 137.178 123.606 137.69 124.733C138.201 125.86 138.911 126.718 139.821 127.306C140.732 127.887 141.789 128.177 142.993 128.177C144.085 128.177 145.03 127.967 145.828 127.547C146.634 127.127 147.253 126.532 147.687 125.762C148.121 124.985 148.338 124.075 148.338 123.031L149.22 123.168H143.382V120.123H152.108V122.706C152.108 124.547 151.716 126.14 150.932 127.484C150.148 128.828 149.07 129.865 147.698 130.593C146.326 131.314 144.75 131.674 142.972 131.674C140.991 131.674 139.251 131.23 137.753 130.341C136.261 129.445 135.096 128.174 134.256 126.529C133.422 124.876 133.006 122.916 133.006 120.648C133.006 118.911 133.251 117.361 133.741 115.995C134.238 114.63 134.931 113.471 135.82 112.519C136.709 111.56 137.753 110.832 138.95 110.335C140.147 109.831 141.449 109.579 142.856 109.579C144.047 109.579 145.156 109.754 146.185 110.104C147.215 110.447 148.128 110.937 148.926 111.574C149.732 112.211 150.393 112.967 150.911 113.842C151.429 114.718 151.769 115.684 151.93 116.741H147.96ZM160.054 131.706C159.032 131.706 158.111 131.524 157.292 131.16C156.48 130.789 155.836 130.243 155.36 129.522C154.891 128.8 154.656 127.911 154.656 126.854C154.656 125.944 154.824 125.191 155.16 124.596C155.496 124.001 155.955 123.525 156.536 123.168C157.117 122.811 157.772 122.541 158.5 122.359C159.235 122.17 159.994 122.034 160.779 121.95C161.724 121.852 162.49 121.764 163.078 121.687C163.667 121.603 164.094 121.477 164.36 121.309C164.633 121.134 164.769 120.865 164.769 120.501V120.438C164.769 119.646 164.535 119.034 164.066 118.6C163.597 118.166 162.921 117.949 162.039 117.949C161.108 117.949 160.369 118.152 159.823 118.558C159.284 118.964 158.92 119.443 158.731 119.996L155.181 119.492C155.461 118.512 155.923 117.693 156.567 117.035C157.212 116.37 157.999 115.873 158.93 115.544C159.861 115.208 160.891 115.04 162.018 115.04C162.795 115.04 163.569 115.131 164.339 115.313C165.109 115.495 165.812 115.796 166.45 116.216C167.087 116.629 167.598 117.193 167.983 117.907C168.375 118.621 168.571 119.513 168.571 120.585V131.38H164.916V129.165H164.79C164.559 129.613 164.234 130.033 163.814 130.425C163.401 130.81 162.879 131.121 162.249 131.359C161.626 131.59 160.894 131.706 160.054 131.706ZM161.041 128.912C161.804 128.912 162.466 128.762 163.026 128.461C163.586 128.153 164.017 127.747 164.318 127.243C164.626 126.739 164.78 126.189 164.78 125.594V123.693C164.661 123.791 164.458 123.882 164.171 123.966C163.891 124.05 163.576 124.124 163.226 124.187C162.875 124.25 162.529 124.306 162.186 124.355C161.843 124.404 161.545 124.446 161.293 124.481C160.726 124.558 160.219 124.684 159.77 124.859C159.322 125.034 158.969 125.279 158.71 125.594C158.451 125.902 158.321 126.301 158.321 126.791C158.321 127.491 158.577 128.02 159.088 128.377C159.599 128.734 160.25 128.912 161.041 128.912ZM180.153 115.25V118.19H170.88V115.25H180.153ZM173.169 111.385H176.971V126.529C176.971 127.04 177.048 127.432 177.202 127.705C177.363 127.971 177.573 128.153 177.832 128.251C178.091 128.349 178.378 128.398 178.693 128.398C178.931 128.398 179.148 128.38 179.344 128.345C179.547 128.31 179.701 128.279 179.806 128.251L180.447 131.223C180.244 131.293 179.953 131.37 179.575 131.454C179.204 131.538 178.749 131.587 178.21 131.601C177.258 131.629 176.4 131.485 175.637 131.17C174.874 130.848 174.268 130.351 173.82 129.679C173.379 129.007 173.162 128.167 173.169 127.159V111.385ZM190.004 131.695C188.387 131.695 186.99 131.359 185.814 130.687C184.645 130.008 183.745 129.049 183.115 127.81C182.485 126.564 182.17 125.097 182.17 123.41C182.17 121.75 182.485 120.294 183.115 119.041C183.752 117.781 184.641 116.8 185.783 116.1C186.924 115.393 188.264 115.04 189.805 115.04C190.799 115.04 191.737 115.201 192.619 115.523C193.508 115.838 194.292 116.328 194.972 116.993C195.658 117.658 196.197 118.505 196.589 119.534C196.981 120.557 197.177 121.775 197.177 123.189V124.355H183.955V121.792H193.533C193.526 121.064 193.368 120.417 193.06 119.849C192.752 119.275 192.322 118.824 191.769 118.495C191.222 118.166 190.585 118.001 189.857 118.001C189.08 118.001 188.397 118.19 187.809 118.568C187.221 118.939 186.763 119.429 186.434 120.038C186.112 120.641 185.947 121.302 185.94 122.023V124.26C185.94 125.198 186.112 126.003 186.455 126.676C186.798 127.341 187.277 127.852 187.893 128.209C188.509 128.559 189.231 128.734 190.057 128.734C190.61 128.734 191.11 128.657 191.558 128.503C192.007 128.342 192.395 128.107 192.724 127.799C193.053 127.491 193.302 127.11 193.47 126.655L197.019 127.054C196.795 127.992 196.368 128.811 195.738 129.511C195.115 130.204 194.317 130.743 193.344 131.128C192.371 131.506 191.257 131.695 190.004 131.695ZM203.34 131.38L198.782 115.25H202.657L205.493 126.592H205.64L208.538 115.25H212.371L215.27 126.529H215.427L218.221 115.25H222.106L217.538 131.38H213.579L210.554 120.48H210.334L207.309 131.38H203.34ZM229.107 131.706C228.085 131.706 227.164 131.524 226.345 131.16C225.533 130.789 224.889 130.243 224.412 129.522C223.943 128.8 223.709 127.911 223.709 126.854C223.709 125.944 223.877 125.191 224.213 124.596C224.549 124.001 225.008 123.525 225.589 123.168C226.17 122.811 226.824 122.541 227.552 122.359C228.288 122.17 229.047 122.034 229.831 121.95C230.777 121.852 231.543 121.764 232.131 121.687C232.719 121.603 233.146 121.477 233.412 121.309C233.685 121.134 233.822 120.865 233.822 120.501V120.438C233.822 119.646 233.587 119.034 233.118 118.6C232.649 118.166 231.974 117.949 231.092 117.949C230.16 117.949 229.422 118.152 228.876 118.558C228.337 118.964 227.973 119.443 227.784 119.996L224.234 119.492C224.514 118.512 224.976 117.693 225.62 117.035C226.264 116.37 227.052 115.873 227.983 115.544C228.914 115.208 229.943 115.04 231.071 115.04C231.848 115.04 232.621 115.131 233.391 115.313C234.162 115.495 234.865 115.796 235.502 116.216C236.139 116.629 236.65 117.193 237.036 117.907C237.428 118.621 237.624 119.513 237.624 120.585V131.38H233.969V129.165H233.843C233.612 129.613 233.286 130.033 232.866 130.425C232.453 130.81 231.932 131.121 231.302 131.359C230.678 131.59 229.947 131.706 229.107 131.706ZM230.094 128.912C230.857 128.912 231.519 128.762 232.079 128.461C232.639 128.153 233.069 127.747 233.37 127.243C233.678 126.739 233.833 126.189 233.833 125.594V123.693C233.714 123.791 233.51 123.882 233.223 123.966C232.943 124.05 232.628 124.124 232.278 124.187C231.928 124.25 231.582 124.306 231.239 124.355C230.896 124.404 230.598 124.446 230.346 124.481C229.779 124.558 229.271 124.684 228.823 124.859C228.375 125.034 228.022 125.279 227.763 125.594C227.503 125.902 227.374 126.301 227.374 126.791C227.374 127.491 227.629 128.02 228.141 128.377C228.652 128.734 229.303 128.912 230.094 128.912ZM242.936 137.429C242.418 137.429 241.938 137.387 241.497 137.303C241.063 137.226 240.716 137.135 240.457 137.03L241.34 134.069C241.893 134.23 242.386 134.307 242.82 134.3C243.254 134.293 243.636 134.156 243.965 133.89C244.301 133.631 244.585 133.197 244.816 132.588L245.141 131.716L239.292 115.25H243.324L247.042 127.432H247.21L250.938 115.25H254.981L248.523 133.334C248.222 134.188 247.823 134.919 247.326 135.529C246.829 136.145 246.219 136.614 245.498 136.936C244.784 137.265 243.93 137.429 242.936 137.429Z" fill="black"/>
<path d="M202.58 53.0532H53.7736C41.3186 53.0532 31.2219 63.15 31.2219 75.605C31.2219 88.0599 41.3186 98.1567 53.7736 98.1567H202.58C215.035 98.1567 225.132 88.0599 225.132 75.605C225.132 63.15 215.035 53.0532 202.58 53.0532Z" fill="#1B3280"/>
<path d="M66.3715 66.7856H70.0485L70.6647 84.3014H66.7388L66.6694 80.3999H59.3154L56.2056 84.3014H52.0797L66.3715 66.7856ZM66.6367 77.0209L66.5429 71.2829L62.0129 77.0209H66.6326H66.6367Z" fill="white"/>
<path d="M80.3821 66.9082H84.2101L78.7824 80.8204H84.3652L82.9981 84.2975H73.5872L80.3821 66.9082Z" fill="white"/>
<path d="M92.8619 66.9082H96.6899L91.2622 80.8204H96.845L95.4779 84.2975H86.067L92.8619 66.9082Z" fill="white"/>
<path d="M111.822 66.9082H115.646L108.851 84.2975H105.023L111.818 66.9082H111.822Z" fill="white"/>
<path d="M121.547 66.9082H125.077L128.795 77.9637L133.129 66.9082H136.904L130.109 84.2975H126.852L122.979 72.8951L118.531 84.2975H114.756L121.551 66.9082H121.547Z" fill="white"/>
<path d="M143.642 76.8984C144.275 71.7074 149.123 66.6143 155.359 66.6143C160.154 66.6143 162.9 69.9444 162.366 74.3152C161.733 79.5062 156.885 84.5993 150.649 84.5993C145.854 84.5993 143.107 81.2692 143.642 76.8984ZM158.362 74.5641C158.677 71.9808 157.338 70.1403 154.481 70.1403C150.829 70.1403 148.017 73.6418 147.65 76.6495C147.335 79.2328 148.674 81.0692 151.531 81.0692C155.183 81.0692 157.995 77.5677 158.362 74.56V74.5641Z" fill="white"/>
<path d="M169.234 66.9082H172.764L176.481 77.9637L180.816 66.9082H184.59L177.796 84.2975H174.539L170.666 72.8951L166.218 84.2975H162.443L169.238 66.9082H169.234Z" fill="white"/>
<path d="M189.158 66.9082H202.151L200.817 70.3118H191.622L190.243 73.8623H198.315L196.989 77.2169H188.913L187.468 80.8939H196.809L195.475 84.2975H182.359L189.153 66.9082H189.158Z" fill="white"/>
<path d="M102.33 76.1268H99.1709L100.33 73.2456H103.485L102.33 76.1268Z" fill="white"/>
<path d="M140.128 76.1268H136.974L138.129 73.2456H141.287L140.128 76.1268Z" fill="white"/>
<path d="M191.063 12.9038C189.892 9.55736 186.705 7.15771 182.958 7.15771H182.881C180.445 7.15771 178.249 8.16981 176.686 9.79814C175.123 8.16981 172.927 7.15771 170.495 7.15771H170.417C168.275 7.15771 166.32 7.94127 164.818 9.23904V8.58199C164.769 7.92495 164.227 7.40666 163.561 7.40666H157.815C157.113 7.40666 156.546 7.978 156.546 8.67994V39.8835C156.546 40.5854 157.113 41.1567 157.815 41.1567H163.561C164.202 41.1567 164.728 40.6752 164.814 40.0589V17.6623C164.814 17.5847 164.814 17.5113 164.818 17.4378C164.912 16.438 165.643 15.6177 166.798 15.5157H167.859C168.344 15.5565 168.752 15.7279 169.071 15.985C169.573 16.3849 169.854 16.993 169.85 17.6664L169.871 39.9528C169.871 40.6548 170.442 41.2261 171.14 41.2261H176.886C177.567 41.2261 178.118 40.6874 178.151 40.014V17.6378C178.143 16.8991 178.486 16.2339 179.081 15.8421C179.375 15.6503 179.73 15.5238 180.138 15.4871H181.199C182.44 15.5973 183.191 16.5359 183.187 17.6378L183.211 39.8957C183.211 40.5976 183.779 41.169 184.481 41.169H190.227C190.929 41.169 191.5 40.6017 191.5 39.8957V15.9564C191.5 14.324 191.312 13.6302 191.063 12.916" fill="#00BCF1"/>
<path d="M152.171 7.48838H148.886V2.16264V2.15448C148.886 1.50559 148.367 0.987305 147.727 0.987305C147.649 0.987305 147.576 0.995467 147.506 1.01179C143.862 2.01164 144.592 7.05579 137.94 7.48838H137.291C137.198 7.48838 137.104 7.50062 137.014 7.52103H137.01C136.447 7.64754 136.018 8.15358 136.018 8.75758V14.5037C136.018 15.2056 136.589 15.7769 137.287 15.7769H140.756V40.1366C140.756 40.8304 141.315 41.3935 142.005 41.3935H147.686C148.38 41.3935 148.943 40.8304 148.943 40.1366V15.7769H152.163C152.865 15.7769 153.432 15.2056 153.432 14.5037V8.75758C153.432 8.05972 152.865 7.48838 152.163 7.48838" fill="#00BCF1"/>
<path d="M131.501 7.48828H125.755C125.057 7.48828 124.485 8.05554 124.485 8.75748V20.6414C124.477 21.376 123.877 21.9678 123.143 21.9678H120.735C119.992 21.9678 119.388 21.3638 119.388 20.621L119.364 8.76156C119.364 8.06371 118.796 7.49236 118.095 7.49236H112.353C111.651 7.49236 111.079 8.05962 111.079 8.76156V21.78C111.079 26.7262 114.605 30.2482 119.556 30.2482C119.556 30.2482 123.269 30.2482 123.384 30.2726C124.053 30.3502 124.575 30.9134 124.575 31.6031C124.575 32.2927 124.065 32.8478 123.4 32.9294C123.371 32.9335 123.339 32.9416 123.306 32.9457L114.903 32.9784C114.205 32.9784 113.634 33.5456 113.634 34.2516V39.9936C113.634 40.6956 114.205 41.2628 114.903 41.2628H124.298C129.248 41.2628 132.774 37.7368 132.774 32.7906V8.75748C132.774 8.05962 132.207 7.48828 131.505 7.48828" fill="#1B3280"/>
<path d="M76.3944 7.48828H63.8371C63.1474 7.48828 62.5923 8.04738 62.5923 8.73707V14.3648V14.3852C62.5923 14.426 62.5923 14.4505 62.5923 14.4791V39.9528C62.5923 40.6466 63.1106 41.2098 63.7554 41.2261H69.6076C70.3096 41.2261 70.8809 40.6589 70.8809 39.9569L70.9013 31.2235H76.3985C80.9978 31.2235 84.2055 28.0362 84.2055 23.4124V15.3116C84.2055 10.6919 80.9978 7.49236 76.3985 7.49236M75.8924 18.0214V21.5678C75.8924 22.3106 75.2884 22.9146 74.5457 22.9146H70.8972V15.8095H74.5457C75.2884 15.8095 75.8924 16.4135 75.8924 17.1562V18.0214Z" fill="#1B3280"/>
<path d="M98.8156 7.52117H90.8454C90.1394 7.52117 89.568 8.05579 89.568 8.71283V10.99V11.0186V14.0957C89.568 14.7936 90.1761 15.3608 90.9229 15.3608H98.5136C99.1135 15.4547 99.5869 15.8914 99.6563 16.577V17.3156C99.5869 17.9686 99.1176 18.442 98.5463 18.495H94.7876C89.7884 18.495 86.2256 21.817 86.2256 26.4775V33.1623C86.2256 37.7983 89.2864 41.0958 94.253 41.0958H104.672C106.541 41.0958 108.055 39.6796 108.055 37.9371V16.1403C108.055 10.8554 105.329 7.51709 98.8197 7.51709M99.7338 31.5013V32.3991C99.7338 32.4726 99.7216 32.5419 99.7094 32.6113C99.6971 32.6766 99.6808 32.7378 99.6563 32.795C99.4767 33.2969 98.9748 33.6601 98.3789 33.6601H95.9875C95.2406 33.6601 94.6326 33.097 94.6326 32.395V31.2727V28.3875V27.4774C94.6326 26.7836 95.2406 26.2204 95.9875 26.2204H98.3789C99.1258 26.2204 99.7338 26.7877 99.7338 27.4855V31.4972V31.5013Z" fill="#1B3280"/>
</svg>
